<svg width="400" height="250" viewBox="0 0 400 250" fill="none" xmlns="http://www.w3.org/2000/svg">
  <rect width="400" height="250" fill="#E2E8F0"/>
  <path d="M185.293 125.293C184.902 125.683 184.902 126.317 185.293 126.707L191.657 133.071C192.047 133.462 192.681 133.462 193.071 133.071C193.462 132.681 193.462 132.047 193.071 131.657L187.414 126L193.071 120.343C193.462 119.953 193.462 119.319 193.071 118.929C192.681 118.538 192.047 118.538 191.657 118.929L185.293 125.293ZM216.707 126.707C217.098 126.317 217.098 125.683 216.707 125.293L210.343 118.929C209.953 118.538 209.319 118.538 208.929 118.929C208.538 119.319 208.538 119.953 208.929 120.343L214.586 126L208.929 131.657C208.538 132.047 208.538 132.681 208.929 133.071C209.319 133.462 209.953 133.462 210.343 133.071L216.707 126.707ZM186 127H216V125H186V127Z" fill="#94A3B8"/>
  <circle cx="200" cy="126" r="18" stroke="#94A3B8" stroke-width="2"/>
</svg>